<svg width="40" height="40" viewBox="0 0 40 40" fill="none" xmlns="http://www.w3.org/2000/svg">
<path d="M20.25 35C19.425 35 18.7188 34.7063 18.1313 34.1188C17.5438 33.5313 17.25 32.825 17.25 32H23.25C23.25 32.825 22.9563 33.5313 22.3688 34.1188C21.7813 34.7063 21.075 35 20.25 35ZM14.25 30.5V27.5H26.25V30.5H14.25ZM14.625 26C12.9 24.975 11.5313 23.6 10.5188 21.875C9.50625 20.15 9 18.275 9 16.25C9 13.125 10.0938 10.4688 12.2813 8.28125C14.4688 6.09375 17.125 5 20.25 5C23.375 5 26.0313 6.09375 28.2188 8.28125C30.4063 10.4688 31.5 13.125 31.5 16.25C31.5 18.275 30.9938 20.15 29.9813 21.875C28.9688 23.6 27.6 24.975 25.875 26H14.625ZM15.525 23H24.975C26.1 22.2 26.9688 21.2125 27.5813 20.0375C28.1938 18.8625 28.5 17.6 28.5 16.25C28.5 13.95 27.7 12 26.1 10.4C24.5 8.8 22.55 8 20.25 8C17.95 8 16 8.8 14.4 10.4C12.8 12 12 13.95 12 16.25C12 17.6 12.3063 18.8625 12.9188 20.0375C13.5313 21.2125 14.4 22.2 15.525 23Z" fill="#FFB562"/>
</svg>
