<?xml version="1.0" encoding="UTF-8" standalone="no"?>
<!DOCTYPE svg PUBLIC "-//W3C//DTD SVG 1.1//EN" "http://www.w3.org/Graphics/SVG/1.1/DTD/svg11.dtd">
<svg width="100%" height="100%" viewBox="0 0 160 160" version="1.1" xmlns="http://www.w3.org/2000/svg" xmlns:xlink="http://www.w3.org/1999/xlink" xml:space="preserve" xmlns:serif="http://www.serif.com/" style="fill-rule:evenodd;clip-rule:evenodd;stroke-linejoin:round;stroke-miterlimit:2;">
    <g transform="matrix(1,0,0,1,28.717,-0.715576)">
        <path d="M26.862,60.682L26.862,100.039L46.893,80.358L26.862,60.682Z" style="fill-rule:nonzero;"/>
    </g>
    <g transform="matrix(1,0,0,1,28.717,-0.715576)">
        <path d="M64.431,43.583L64.431,2.756C64.431,1.632 63.522,0.716 62.396,0.716L28.898,0.716C27.777,0.716 26.862,1.627 26.862,2.756L26.862,6.814L26.929,6.741L64.426,43.578L64.431,43.583Z" style="fill-rule:nonzero;"/>
    </g>
    <g transform="matrix(1,0,0,1,28.717,-0.715576)">
        <path d="M64.432,117.133L26.935,153.969L26.868,153.896L26.868,157.954C26.868,159.078 27.777,159.994 28.904,159.994L62.402,159.994C63.523,159.994 64.437,159.083 64.437,157.954L64.437,117.127L64.432,117.133Z" style="fill-rule:nonzero;"/>
    </g>
    <g transform="matrix(1,0,0,1,28.717,-0.715576)">
        <path d="M26.862,6.819L0,34.293L26.862,60.682L26.862,6.819Z" style="fill:rgb(167,167,167);fill-rule:nonzero;"/>
    </g>
    <g transform="matrix(1,0,0,1,28.717,-0.715576)">
        <path d="M26.862,100.039L0,126.428L26.862,153.902L26.862,100.039Z" style="fill:rgb(167,167,167);fill-rule:nonzero;"/>
    </g>
    <g transform="matrix(1,0,0,1,28.717,-0.715576)">
        <path d="M101.866,80.358L64.431,117.132L64.431,43.583" style="fill:rgb(167,167,167);fill-rule:nonzero;"/>
    </g>
    <rect x="0.158" y="0.211" width="158.747" height="158.815" style="fill:none;"/>
</svg>
