<svg width="420" height="160" viewBox="0 0 420 160" fill="none" xmlns="http://www.w3.org/2000/svg">
<g clip-path="url(#clip0_1217_11070)">
<path d="M145.078 56.0425C148.96 56.0425 151.999 55.137 154.202 53.3259C156.404 51.5148 158.027 49.2901 159.081 46.6518L177.523 57.6244C176.078 60.3913 174.333 62.9122 172.297 65.1873C170.262 67.4623 167.875 69.4243 165.148 71.0676C162.421 72.7166 159.393 74.0022 156.075 74.9245C152.757 75.8468 149.088 76.3108 145.078 76.3108C138.967 76.3108 133.608 75.2543 129.007 73.147C124.406 71.0397 120.542 68.2225 117.419 64.6954C114.296 61.1683 111.948 57.1157 110.37 52.5377C108.792 47.9598 108.006 43.1638 108.006 38.1554C108.006 33.147 108.775 28.3566 110.326 23.7731C111.87 19.1951 114.185 15.1425 117.28 11.6154C120.369 8.08832 124.217 5.27669 128.817 3.16378C133.418 1.05646 138.777 0 144.889 0C148.898 0 152.579 0.463946 155.93 1.38625C159.282 2.30855 162.304 3.59419 165.003 5.24315C167.697 6.89212 170.083 8.84852 172.152 11.1235C174.221 13.3985 175.978 15.9195 177.428 18.6864L159.087 29.659C158.033 27.0263 156.388 24.8016 154.157 22.9849C151.921 21.1738 148.865 20.2683 144.989 20.2683C142.028 20.2683 139.53 20.7993 137.494 21.8502C135.453 22.9067 133.831 24.2873 132.615 26.0034C131.399 27.7194 130.529 29.6423 130 31.7831C129.47 33.924 129.213 36.0481 129.213 38.161C129.213 40.2739 129.475 42.3812 130 44.4885C130.524 46.5959 131.41 48.5075 132.66 50.2236C133.909 51.9396 135.554 53.3371 137.589 54.4271C139.625 55.5115 142.123 56.0593 145.084 56.0593L145.078 56.0425Z" fill="black"/>
<path d="M184.761 0.888672H205.466V75.1201H184.761V0.888672Z" fill="black"/>
<path d="M270.299 0.888672H292.487L263.991 75.1201H241.708L212.71 0.888672H234.899L252.749 49.6198L270.299 0.888672Z" fill="black"/>
<path d="M123.659 106.328C123.659 107.977 124.613 109.195 126.52 109.983C128.427 110.771 130.808 111.481 133.669 112.107C136.53 112.733 139.619 113.477 142.937 114.332C146.255 115.187 149.345 116.49 152.205 118.239C155.066 119.983 157.447 122.359 159.354 125.355C161.262 128.357 162.215 132.325 162.215 137.267C162.215 141.09 161.345 144.399 159.6 147.2C157.854 150 155.607 152.325 152.847 154.17C150.086 156.015 147.03 157.401 143.679 158.323C140.327 159.245 137.004 159.709 133.719 159.709C130.697 159.709 127.702 159.43 124.747 158.871C121.791 158.312 118.947 157.457 116.215 156.3C113.488 155.148 110.906 153.717 108.474 152.001C106.043 150.291 103.84 148.278 101.866 145.97L115.674 131.241C117.843 134.405 120.442 136.909 123.464 138.754C126.486 140.598 129.804 141.52 133.424 141.52C134.277 141.52 135.197 141.42 136.184 141.224C137.171 141.029 138.091 140.716 138.944 140.285C139.798 139.855 140.523 139.296 141.114 138.603C141.705 137.909 142 137.038 142 135.981C142 134.863 141.459 133.952 140.372 133.264C139.285 132.571 137.874 131.945 136.134 131.386C134.394 130.827 132.386 130.296 130.117 129.804C127.847 129.313 125.55 128.703 123.213 127.977C120.877 127.25 118.579 126.361 116.309 125.31C114.04 124.259 112.038 122.923 110.292 121.308C108.552 119.693 107.136 117.719 106.054 115.377C104.972 113.041 104.426 110.224 104.426 106.926C104.426 103.169 105.229 99.8435 106.84 96.9425C108.452 94.0414 110.554 91.6043 113.153 89.6255C115.746 87.6468 118.691 86.1487 121.981 85.1258C125.265 84.1029 128.589 83.5942 131.94 83.5942C137.79 83.5942 143.049 84.8128 147.716 87.2499C152.384 89.687 156.789 92.9514 160.933 97.0375L148.313 110.185C145.882 107.283 143.417 105.081 140.918 103.561C138.42 102.046 135.264 101.286 131.455 101.286C130.663 101.286 129.81 101.353 128.89 101.481C127.97 101.615 127.117 101.878 126.325 102.269C125.538 102.666 124.897 103.192 124.401 103.851C123.91 104.511 123.659 105.333 123.659 106.322V106.328Z" fill="black"/>
<path d="M205.417 158.619H184.611V103.863H162.918V84.3879H227.115V103.863H205.422V158.619H205.417Z" fill="black"/>
<path d="M212.755 158.619L241.351 84.3879H263.54L292.532 158.619H270.343L265.81 146.266H239.383L234.944 158.619H212.755ZM259.302 128.373L252.499 109.888L245.89 128.373H259.302Z" fill="black"/>
<path d="M332.075 158.619L313.439 132.622V158.619H292.532V84.3879H329.61C332.767 84.3879 335.739 84.9804 338.533 86.1655C341.327 87.3505 343.758 88.9827 345.832 91.0565C347.901 93.1302 349.53 95.573 350.712 98.3734C351.894 101.174 352.485 104.153 352.485 107.317C352.485 110.084 352.022 112.705 351.108 115.176C350.188 117.647 348.905 119.871 347.26 121.85C345.615 123.829 343.674 125.506 341.444 126.892C339.208 128.278 336.776 129.234 334.144 129.76L359.389 158.619H332.075ZM326.058 115.126C327.636 115.126 328.969 114.567 330.051 113.443C331.133 112.325 331.679 111.006 331.679 109.491C331.679 107.977 331.138 106.574 330.051 105.489C328.964 104.405 327.636 103.857 326.058 103.857H313.338V115.126H326.058Z" fill="black"/>
<path d="M398.307 158.619H377.501V103.863H355.809V84.3879H420.005V103.863H398.313V158.619H398.307Z" fill="black"/>
<path d="M26.8623 60.6821V100.039L46.8931 80.3579L26.8623 60.6821Z" fill="black"/>
<path d="M64.4312 43.5831V2.75582C64.4312 1.63229 63.5222 0.715576 62.3958 0.715576H28.8977C27.7769 0.715576 26.8623 1.6267 26.8623 2.75582V6.81396L26.9292 6.74129L64.4256 43.5775L64.4312 43.5831Z" fill="black"/>
<path d="M64.4315 117.133L26.9351 153.969L26.8682 153.896V157.954C26.8682 159.078 27.7771 159.994 28.9036 159.994H62.4016C63.5225 159.994 64.4371 159.083 64.4371 157.954V117.127L64.4315 117.133Z" fill="black"/>
<path d="M26.862 6.81934L0 34.2928L26.862 60.6818V6.81934Z" fill="#A7A7A7"/>
<path d="M26.862 100.039L0 126.428L26.862 153.902V100.039Z" fill="#A7A7A7"/>
<path d="M101.866 80.3577L64.4307 117.132V43.583" fill="#A7A7A7"/>
</g>
<defs>
<clipPath id="clip0_1217_11070">
<rect width="420" height="160" fill="white"/>
</clipPath>
</defs>
</svg>
