<svg width="40" height="40" viewBox="0 0 40 40" fill="none" xmlns="http://www.w3.org/2000/svg">
<path d="M11.4444 31C10.7722 31 10.1968 30.7606 9.71806 30.2819C9.23935 29.8032 9 29.2278 9 28.5556V11.4444C9 10.7722 9.23935 10.1968 9.71806 9.71806C10.1968 9.23935 10.7722 9 11.4444 9H28.5556C29.2278 9 29.8032 9.23935 30.2819 9.71806C30.7606 10.1968 31 10.7722 31 11.4444V28.5556C31 29.2278 30.7606 29.8032 30.2819 30.2819C29.8032 30.7606 29.2278 31 28.5556 31H11.4444ZM11.4444 28.5556H28.5556V11.4444H11.4444V28.5556Z" fill="black"/>
<path d="M16.0846 26V24.2689L20.1268 20.1345C20.8879 19.3445 21.4799 18.5714 21.4799 17.7815C21.4799 16.8403 20.8372 16.2521 19.9408 16.2521C19.0275 16.2521 18.351 16.7899 17.9619 17.6303L16 16.4874C16.7611 14.8067 18.3002 14 19.907 14C21.9366 14 23.814 15.3445 23.814 17.6975C23.814 19.1261 22.9852 20.3529 21.8689 21.4622L19.5518 23.7647H24V26H16.0846Z" fill="black"/>
</svg>
