<svg width="40" height="40" viewBox="0 0 40 40" fill="none" xmlns="http://www.w3.org/2000/svg">
<path d="M20.5 8C13.6 8 8 13.6 8 20.5C8 27.4 13.6 33 20.5 33C27.4 33 33 27.4 33 20.5C33 13.6 27.4 8 20.5 8ZM14.6875 28.625C16.325 27.45 18.325 26.75 20.5 26.75C22.675 26.75 24.675 27.45 26.3125 28.625C24.675 29.8 22.675 30.5 20.5 30.5C18.325 30.5 16.325 29.8 14.6875 28.625ZM28.175 26.9C26.0625 25.25 23.4 24.25 20.5 24.25C17.6 24.25 14.9375 25.25 12.825 26.9C11.375 25.1625 10.5 22.9375 10.5 20.5C10.5 14.975 14.975 10.5 20.5 10.5C26.025 10.5 30.5 14.975 30.5 20.5C30.5 22.9375 29.625 25.1625 28.175 26.9Z" fill="black"/>
<path d="M20.4961 13.0001C18.0836 13.0001 16.1211 14.9626 16.1211 17.3751C16.1211 19.7876 18.0836 21.7501 20.4961 21.7501C22.9086 21.7501 24.8711 19.7876 24.8711 17.3751C24.8711 14.9626 22.9086 13.0001 20.4961 13.0001ZM20.4961 19.2501C19.4586 19.2501 18.6211 18.4126 18.6211 17.3751C18.6211 16.3376 19.4586 15.5001 20.4961 15.5001C21.5336 15.5001 22.3711 16.3376 22.3711 17.3751C22.3711 18.4126 21.5336 19.2501 20.4961 19.2501Z" fill="black"/>
</svg>
