<svg width="40" height="40" viewBox="0 0 40 40" fill="none" xmlns="http://www.w3.org/2000/svg">
<path d="M23.7375 15.5L20.5 18.7375L17.2625 15.5L15.5 17.2625L18.7375 20.5L15.5 23.7375L17.2625 25.5L20.5 22.2625L23.7375 25.5L25.5 23.7375L22.2625 20.5L25.5 17.2625L23.7375 15.5ZM20.5 8C13.5875 8 8 13.5875 8 20.5C8 27.4125 13.5875 33 20.5 33C27.4125 33 33 27.4125 33 20.5C33 13.5875 27.4125 8 20.5 8ZM20.5 30.5C14.9875 30.5 10.5 26.0125 10.5 20.5C10.5 14.9875 14.9875 10.5 20.5 10.5C26.0125 10.5 30.5 14.9875 30.5 20.5C30.5 26.0125 26.0125 30.5 20.5 30.5Z" fill="black"/>
</svg>
