<svg width="40" height="40" viewBox="0 0 40 40" fill="none" xmlns="http://www.w3.org/2000/svg">
<path d="M16.9577 26.2083H20.041V16.9583H16.9577V26.2083ZM18.4993 13.875C18.9362 13.875 19.3023 13.7272 19.5978 13.4318C19.8933 13.1363 20.041 12.7701 20.041 12.3333C20.041 11.8965 19.8933 11.5304 19.5978 11.2349C19.3023 10.9394 18.9362 10.7916 18.4993 10.7916C18.0625 10.7916 17.6964 10.9394 17.4009 11.2349C17.1054 11.5304 16.9577 11.8965 16.9577 12.3333C16.9577 12.7701 17.1054 13.1363 17.4009 13.4318C17.6964 13.7272 18.0625 13.875 18.4993 13.875ZM18.4993 33.9166C14.9278 33.0173 11.9794 30.9682 9.65404 27.7693C7.32869 24.5703 6.16602 21.018 6.16602 17.1125V7.70831L18.4993 3.08331L30.8327 7.70831V17.1125C30.8327 21.018 29.67 24.5703 27.3447 27.7693C25.0193 30.9682 22.0709 33.0173 18.4993 33.9166ZM18.4993 30.6791C21.1716 29.8312 23.3813 28.1354 25.1285 25.5916C26.8757 23.0479 27.7493 20.2215 27.7493 17.1125V9.82811L18.4993 6.35935L9.24935 9.82811V17.1125C9.24935 20.2215 10.123 23.0479 11.8702 25.5916C13.6174 28.1354 15.8271 29.8312 18.4993 30.6791Z" fill="#F17E63"/>
</svg>
