<svg width="40" height="40" viewBox="0 0 40 40" fill="none" xmlns="http://www.w3.org/2000/svg">
<path d="M11.4444 31C10.7722 31 10.1968 30.7606 9.71806 30.2819C9.23935 29.8032 9 29.2278 9 28.5556V11.4444C9 10.7722 9.23935 10.1968 9.71806 9.71806C10.1968 9.23935 10.7722 9 11.4444 9H28.5556C29.2278 9 29.8032 9.23935 30.2819 9.71806C30.7606 10.1968 31 10.7722 31 11.4444V28.5556C31 29.2278 30.7606 29.8032 30.2819 30.2819C29.8032 30.7606 29.2278 31 28.5556 31H11.4444ZM11.4444 28.5556H28.5556V11.4444H11.4444V28.5556Z" fill="black"/>
<path d="M20.0263 14H22V26H19.7303V16.5029L17.5592 17.1371L17 15.1143L20.0263 14Z" fill="black"/>
</svg>
