<svg width="40" height="40" viewBox="0 0 40 40" fill="none" xmlns="http://www.w3.org/2000/svg">
<path d="M10 29C10 29.5523 10.4477 30 11 30H28.0526C28.6049 30 29.0526 29.5523 29.0526 29V19.5263C29.0526 18.974 28.6049 18.5263 28.0526 18.5263H23.3684V13.8421C23.3684 13.5769 23.2631 13.3225 23.0755 13.135L20.2334 10.2929C20.0459 10.1054 19.7915 10 19.5263 10C19.2611 10 19.0067 10.1054 18.8192 10.2929L15.9771 13.135C15.7896 13.3225 15.6842 13.5769 15.6842 13.8421V14.7368H11C10.4477 14.7368 10 15.1846 10 15.7368V29Z" stroke="black" stroke-width="2" stroke-linejoin="round"/>
<path d="M14.7893 27.1052H12.8945V25.2105H14.7893V27.1052Z" fill="black"/>
<path d="M14.7893 23.3157H12.8945V21.421H14.7893V23.3157Z" fill="black"/>
<path d="M14.7893 19.5263H12.8945V17.6315H14.7893V19.5263Z" fill="black"/>
<path d="M20.4735 27.1052H18.5787V25.2105H20.4735V27.1052Z" fill="black"/>
<path d="M20.4735 23.3157H18.5787V21.421H20.4735V23.3157Z" fill="black"/>
<path d="M20.4735 19.5263H18.5787V17.6315H20.4735V19.5263Z" fill="black"/>
<path d="M20.4735 15.7368H18.5787V13.842H20.4735V15.7368Z" fill="black"/>
<path d="M26.1577 27.1052H24.263V25.2105H26.1577V27.1052Z" fill="black"/>
<path d="M26.1577 23.3157H24.263V21.421H26.1577V23.3157Z" fill="black"/>
</svg>
