<svg width="40" height="40" viewBox="0 0 40 40" fill="none" xmlns="http://www.w3.org/2000/svg">
<path d="M26.2105 22.9824C24.8509 22.9824 23.6952 22.5066 22.7434 21.5548C21.7917 20.6031 21.3158 19.4474 21.3158 18.0877C21.3158 16.7281 21.7917 15.5724 22.7434 14.6206C23.6952 13.6688 24.8509 13.193 26.2105 13.193C27.5702 13.193 28.7259 13.6688 29.6776 14.6206C30.6294 15.5724 31.1053 16.7281 31.1053 18.0877C31.1053 19.4474 30.6294 20.6031 29.6776 21.5548C28.7259 22.5066 27.5702 22.9824 26.2105 22.9824ZM16.4211 32.7719V29.6719C16.4211 29.1009 16.557 28.557 16.8289 28.0403C17.1009 27.5237 17.4816 27.1158 17.9711 26.8167C19.1947 26.0824 20.4932 25.5318 21.8664 25.1647C23.2397 24.7976 24.6877 24.614 26.2105 24.614C27.7333 24.614 29.1814 24.7976 30.5546 25.1647C31.9279 25.5318 33.2263 26.0824 34.45 26.8167C34.9395 27.1158 35.3202 27.5237 35.5921 28.0403C35.864 28.557 36 29.1009 36 29.6719V32.7719H16.4211ZM19.9289 29.5088H32.4921C31.5404 28.9649 30.5342 28.557 29.4737 28.2851C28.4132 28.0131 27.3254 27.8772 26.2105 27.8772C25.0956 27.8772 24.0079 28.0131 22.9474 28.2851C21.8868 28.557 20.8807 28.9649 19.9289 29.5088ZM26.2105 19.7193C26.6728 19.7193 27.0603 19.5629 27.373 19.2502C27.6857 18.9375 27.8421 18.55 27.8421 18.0877C27.8421 17.6254 27.6857 17.2379 27.373 16.9252C27.0603 16.6125 26.6728 16.4561 26.2105 16.4561C25.7482 16.4561 25.3607 16.6125 25.048 16.9252C24.7353 17.2379 24.5789 17.6254 24.5789 18.0877C24.5789 18.55 24.7353 18.9375 25.048 19.2502C25.3607 19.5629 25.7482 19.7193 26.2105 19.7193ZM5 22.9824V19.7193H18.0526V22.9824H5ZM5 9.92981V6.66666H24.5789V9.92981H5ZM18.2158 16.4561H5V13.193H19.6842C19.3035 13.6553 18.9976 14.1583 18.7664 14.7022C18.5353 15.246 18.3518 15.8307 18.2158 16.4561Z" fill="#94B0F3"/>
</svg>
