<svg width="40" height="40" viewBox="0 0 40 40" fill="none" xmlns="http://www.w3.org/2000/svg">
<path d="M20 34C18.0633 34 16.2433 33.6325 14.54 32.8975C12.8367 32.1625 11.355 31.165 10.095 29.905C8.835 28.645 7.8375 27.1633 7.1025 25.46C6.3675 23.7567 6 21.9367 6 20C6 18.0633 6.3675 16.2433 7.1025 14.54C7.8375 12.8367 8.835 11.355 10.095 10.095C11.355 8.835 12.8367 7.8375 14.54 7.1025C16.2433 6.3675 18.0633 6 20 6C21.5167 6 22.9517 6.22167 24.305 6.665C25.6583 7.10833 26.9067 7.72667 28.05 8.52L26.02 10.585C25.1333 10.025 24.1883 9.5875 23.185 9.2725C22.1817 8.9575 21.12 8.8 20 8.8C16.8967 8.8 14.2542 9.89083 12.0725 12.0725C9.89083 14.2542 8.8 16.8967 8.8 20C8.8 23.1033 9.89083 25.7458 12.0725 27.9275C14.2542 30.1092 16.8967 31.2 20 31.2C23.1033 31.2 25.7458 30.1092 27.9275 27.9275C30.1092 25.7458 31.2 23.1033 31.2 20C31.2 19.58 31.1767 19.16 31.13 18.74C31.0833 18.32 31.0133 17.9117 30.92 17.515L33.195 15.24C33.4517 15.9867 33.65 16.7567 33.79 17.55C33.93 18.3433 34 19.16 34 20C34 21.9367 33.6325 23.7567 32.8975 25.46C32.1625 27.1633 31.165 28.645 29.905 29.905C28.645 31.165 27.1633 32.1625 25.46 32.8975C23.7567 33.6325 21.9367 34 20 34ZM18.04 26.44L12.09 20.49L14.05 18.53L18.04 22.52L32.04 8.485L34 10.445L18.04 26.44Z" fill="#FFB562"/>
</svg>
