<svg width="40" height="40" viewBox="0 0 40 40" fill="none" xmlns="http://www.w3.org/2000/svg">
<path d="M13.2626 10.6127C12.7599 10.6127 12.334 10.786 11.9849 11.1327C11.6359 11.4793 11.4613 11.9003 11.4613 12.3955C11.4613 12.8908 11.6373 13.3103 11.9892 13.6542C12.3411 13.9981 12.7684 14.17 13.2711 14.17C13.7739 14.17 14.1998 13.9967 14.5488 13.65C14.8979 13.3033 15.0724 12.8824 15.0724 12.3871C15.0724 11.8919 14.8965 11.4724 14.5446 11.1285C14.1927 10.7846 13.7654 10.6127 13.2626 10.6127ZM13.2626 25.34C12.7599 25.34 12.334 25.5133 11.9849 25.86C11.6359 26.2066 11.4613 26.6276 11.4613 27.1228C11.4613 27.618 11.6373 28.0376 11.9892 28.3815C12.3411 28.7253 12.7684 28.8973 13.2711 28.8973C13.7739 28.8973 14.1998 28.7239 14.5488 28.3773C14.8979 28.0306 15.0724 27.6097 15.0724 27.1144C15.0724 26.6192 14.8965 26.1996 14.5446 25.8558C14.1927 25.5119 13.7654 25.34 13.2626 25.34ZM8.46411 6.27277H31.9724C32.3576 6.27277 32.6646 6.38541 32.8933 6.61071C33.122 6.83601 33.2363 7.14209 33.2363 7.52896V17.087C33.2363 17.5002 33.122 17.8466 32.8933 18.1262C32.6646 18.4057 32.3576 18.5455 31.9724 18.5455H8.46411C8.10299 18.5455 7.80809 18.4057 7.57938 18.1262C7.35068 17.8466 7.23633 17.5002 7.23633 17.087V7.52896C7.23633 7.14209 7.35068 6.83601 7.57938 6.61071C7.80809 6.38541 8.10299 6.27277 8.46411 6.27277ZM9.40299 8.40715V16.4111H31.0697V8.40715H9.40299ZM8.46411 20.9645H31.828C32.1891 20.9645 32.5141 21.1127 32.803 21.4091C33.0919 21.7056 33.2363 22.0438 33.2363 22.4239V31.8143C33.2363 32.2886 33.0919 32.6502 32.803 32.8993C32.5141 33.1483 32.1891 33.2728 31.828 33.2728H8.64466C8.25948 33.2728 7.92846 33.1483 7.65161 32.8993C7.37475 32.6502 7.23633 32.2886 7.23633 31.8143V22.4239C7.23633 22.0438 7.35068 21.7056 7.57938 21.4091C7.80809 21.1127 8.10299 20.9645 8.46411 20.9645ZM9.40299 23.0989V31.1384H31.0697V23.0989H9.40299Z" fill="#F4B870"/>
</svg>
