<svg width="40" height="40" viewBox="0 0 40 40" fill="none" xmlns="http://www.w3.org/2000/svg">
<path d="M6 21.0667H9.02222V18.0444H6V21.0667ZM6 27.1111H9.02222V24.0889H6V27.1111ZM6 15.0222H9.02222V12H6V15.0222ZM12.0444 21.0667H33.2V18.0444H12.0444V21.0667ZM12.0444 27.1111H33.2V24.0889H12.0444V27.1111ZM12.0444 12V15.0222H33.2V12H12.0444ZM6 21.0667H9.02222V18.0444H6V21.0667ZM6 27.1111H9.02222V24.0889H6V27.1111ZM6 15.0222H9.02222V12H6V15.0222ZM12.0444 21.0667H33.2V18.0444H12.0444V21.0667ZM12.0444 27.1111H33.2V24.0889H12.0444V27.1111ZM12.0444 12V15.0222H33.2V12H12.0444Z" fill="black"/>
</svg>
