<svg width="40" height="40" viewBox="0 0 40 40" fill="none" xmlns="http://www.w3.org/2000/svg">
<path d="M20.5 31.0455C17.5561 31.0455 15.0625 30.0239 13.0193 27.9807C10.9761 25.9375 9.95455 23.4439 9.95455 20.5C9.95455 17.5561 10.9761 15.0625 13.0193 13.0193C15.0625 10.9761 17.5561 9.95455 20.5 9.95455C23.4439 9.95455 25.9375 10.9761 27.9807 13.0193C30.0239 15.0625 31.0455 17.5561 31.0455 20.5C31.0455 23.4439 30.0239 25.9375 27.9807 27.9807C25.9375 30.0239 23.4439 31.0455 20.5 31.0455ZM20.5 28.4091C22.697 28.4091 24.5644 27.6402 26.1023 26.1023C27.6402 24.5644 28.4091 22.697 28.4091 20.5C28.4091 20.1265 28.3816 19.7585 28.3267 19.396C28.2718 19.0335 28.1894 18.6765 28.0795 18.325C27.75 18.3909 27.4205 18.4403 27.0909 18.4733C26.7614 18.5062 26.4318 18.5227 26.1023 18.5227C24.7182 18.5227 23.4 18.2591 22.1477 17.7318C20.8955 17.2045 19.775 16.4356 18.7864 15.425C18.1712 16.6773 17.3254 17.7648 16.2489 18.6875C15.1723 19.6102 13.953 20.2803 12.5909 20.6977C12.6568 22.8508 13.4532 24.6742 14.9801 26.1682C16.507 27.6621 18.347 28.4091 20.5 28.4091ZM13.1182 17.6659C14.0848 17.1606 14.8208 16.5729 15.3261 15.9028C15.8314 15.2328 16.3258 14.4364 16.8091 13.5136C15.9742 13.953 15.2383 14.5297 14.6011 15.2437C13.964 15.9578 13.4697 16.7652 13.1182 17.6659ZM17.2045 23.1364C16.8311 23.1364 16.518 23.01 16.2653 22.7574C16.0127 22.5047 15.8864 22.1917 15.8864 21.8182C15.8864 21.4447 16.0127 21.1316 16.2653 20.879C16.518 20.6263 16.8311 20.5 17.2045 20.5C17.578 20.5 17.8911 20.6263 18.1437 20.879C18.3964 21.1316 18.5227 21.4447 18.5227 21.8182C18.5227 22.1917 18.3964 22.5047 18.1437 22.7574C17.8911 23.01 17.578 23.1364 17.2045 23.1364ZM26.1023 15.8864H26.4977C26.6295 15.8864 26.7614 15.8754 26.8932 15.8534C26.1682 14.8648 25.2509 14.0739 24.1415 13.4807C23.032 12.8875 21.8182 12.5909 20.5 12.5909H20.1045C19.9727 12.5909 19.8519 12.6019 19.742 12.6239C20.5989 13.6125 21.5051 14.4034 22.4608 14.9966C23.4165 15.5898 24.6303 15.8864 26.1023 15.8864ZM23.7955 23.1364C23.422 23.1364 23.1089 23.01 22.8562 22.7574C22.6036 22.5047 22.4773 22.1917 22.4773 21.8182C22.4773 21.4447 22.6036 21.1316 22.8562 20.879C23.1089 20.6263 23.422 20.5 23.7955 20.5C24.1689 20.5 24.482 20.6263 24.7347 20.879C24.9873 21.1316 25.1136 21.4447 25.1136 21.8182C25.1136 22.1917 24.9873 22.5047 24.7347 22.7574C24.482 23.01 24.1689 23.1364 23.7955 23.1364ZM6 12.5909V6H12.5909V8.63636H8.63636V12.5909H6ZM6 35V28.4091H8.63636V32.3636H12.5909V35H6ZM28.4091 35V32.3636H32.3636V28.4091H35V35H28.4091ZM32.3636 12.5909V8.63636H28.4091V6H35V12.5909H32.3636Z" fill="#94B0F3"/>
</svg>
