<svg width="40" height="40" viewBox="0 0 40 40" fill="none" xmlns="http://www.w3.org/2000/svg">
<path d="M19.5938 24.9062C21.0521 24.9062 22.2917 24.4375 23.3125 23.5C24.3333 22.5625 24.8438 21.4271 24.8438 20.0938C24.8438 18.9062 24.4635 17.901 23.7031 17.0781C22.9427 16.2552 22.0208 15.8438 20.9375 15.8438C19.9583 15.8438 19.1302 16.1562 18.4531 16.7812C17.776 17.4062 17.4375 18.1771 17.4375 19.0938C17.4375 19.4896 17.5156 19.875 17.6719 20.25C17.8281 20.625 18.0521 20.9688 18.3438 21.2812L20.125 19.5C20.0625 19.4583 20.0156 19.4062 19.9844 19.3438C19.9531 19.2812 19.9375 19.2083 19.9375 19.125C19.9375 18.8958 20.0313 18.7135 20.2188 18.5781C20.4063 18.4427 20.6458 18.375 20.9375 18.375C21.3542 18.375 21.6979 18.5469 21.9688 18.8906C22.2396 19.2344 22.375 19.6458 22.375 20.125C22.375 20.7708 22.1094 21.3177 21.5781 21.7656C21.0469 22.2135 20.3958 22.4375 19.625 22.4375C18.6458 22.4375 17.8177 22.0417 17.1406 21.25C16.4635 20.4583 16.125 19.4896 16.125 18.3438C16.125 17.7396 16.2396 17.1615 16.4688 16.6094C16.6979 16.0573 17.0208 15.5729 17.4375 15.1562L15.6563 13.375C14.9896 14.0208 14.4792 14.7708 14.125 15.625C13.7708 16.4792 13.5938 17.375 13.5938 18.3125C13.5938 20.1458 14.1771 21.7031 15.3438 22.9844C16.5104 24.2656 17.9271 24.9062 19.5938 24.9062ZM11.75 33V27.625C10.5625 26.5417 9.64063 25.276 8.98438 23.8281C8.32813 22.3802 8 20.8542 8 19.25C8 16.125 9.09375 13.4688 11.2813 11.2812C13.4688 9.09375 16.125 8 19.25 8C21.8542 8 24.1615 8.76562 26.1719 10.2969C28.1823 11.8281 29.4896 13.8229 30.0938 16.2812L32.0938 24.25H28V30.5H23V33H20.5V28H25.5V21.75H28.875L27.6875 16.9062C27.2083 15.0104 26.1875 13.4688 24.625 12.2812C23.0625 11.0938 21.2708 10.5 19.25 10.5C16.8333 10.5 14.7708 11.3438 13.0625 13.0312C11.3542 14.7188 10.5 16.7708 10.5 19.1875C10.5 20.4375 10.7552 21.625 11.2656 22.75C11.776 23.875 12.5 24.875 13.4375 25.75L14.25 26.5V33H11.75Z" fill="black"/>
</svg>
