<svg width="40" height="40" viewBox="0 0 40 40" fill="none" xmlns="http://www.w3.org/2000/svg">
<path d="M20.5 11.875C22.0813 11.875 23.375 13.1687 23.375 14.75C23.375 16.3313 22.0813 17.625 20.5 17.625C18.9187 17.625 17.625 16.3313 17.625 14.75C17.625 13.1687 18.9187 11.875 20.5 11.875ZM20.5 26.25C24.3813 26.25 28.8375 28.1044 29.125 29.125H11.875C12.2056 28.09 16.6331 26.25 20.5 26.25ZM20.5 9C17.3231 9 14.75 11.5731 14.75 14.75C14.75 17.9269 17.3231 20.5 20.5 20.5C23.6769 20.5 26.25 17.9269 26.25 14.75C26.25 11.5731 23.6769 9 20.5 9ZM20.5 23.375C16.6619 23.375 9 25.3012 9 29.125V32H32V29.125C32 25.3012 24.3381 23.375 20.5 23.375Z" fill="black"/>
</svg>
