<svg width="40" height="40" viewBox="0 0 40 40" fill="none" xmlns="http://www.w3.org/2000/svg">
<path d="M7.20588 33.25C6.61765 33.25 6.10294 33.0312 5.66176 32.5937C5.22059 32.1562 5 31.6458 5 31.0625V9.1875C5 8.60417 5.22059 8.09375 5.66176 7.65625C6.10294 7.21875 6.61765 7 7.20588 7H32.7941C33.3824 7 33.8971 7.21875 34.3382 7.65625C34.7794 8.09375 35 8.60417 35 9.1875V31.0625C35 31.6458 34.7794 32.1562 34.3382 32.5937C33.8971 33.0312 33.3824 33.25 32.7941 33.25H7.20588ZM7.20588 31.0625H32.7941V9.1875H7.20588V31.0625ZM9.70588 27.4167H17.0588V24.5H9.70588V27.4167ZM23.75 24.5L31.0294 17.2812L28.9338 15.2031L23.75 20.3802L21.6544 18.3021L19.5956 20.3802L23.75 24.5ZM9.70588 21.5833H17.0588V18.6667H9.70588V21.5833ZM9.70588 15.75H17.0588V12.8333H9.70588V15.75Z" fill="#60C682"/>
</svg>
