<svg width="40" height="40" viewBox="0 0 40 40" fill="none" xmlns="http://www.w3.org/2000/svg">
<path d="M18.334 28.3333H21.6673V18.3333H18.334V28.3333ZM20.0007 15C20.4729 15 20.8687 14.8403 21.1881 14.5208C21.5076 14.2014 21.6673 13.8055 21.6673 13.3333C21.6673 12.8611 21.5076 12.4653 21.1881 12.1458C20.8687 11.8264 20.4729 11.6667 20.0007 11.6667C19.5284 11.6667 19.1326 11.8264 18.8132 12.1458C18.4937 12.4653 18.334 12.8611 18.334 13.3333C18.334 13.8055 18.4937 14.2014 18.8132 14.5208C19.1326 14.8403 19.5284 15 20.0007 15ZM20.0007 36.6667C17.6951 36.6667 15.5284 36.2292 13.5007 35.3542C11.4729 34.4792 9.70898 33.2917 8.20898 31.7917C6.70898 30.2917 5.52148 28.5278 4.64648 26.5C3.77148 24.4722 3.33398 22.3055 3.33398 20C3.33398 17.6944 3.77148 15.5278 4.64648 13.5C5.52148 11.4722 6.70898 9.70833 8.20898 8.20833C9.70898 6.70833 11.4729 5.52083 13.5007 4.64583C15.5284 3.77083 17.6951 3.33333 20.0007 3.33333C22.3062 3.33333 24.4729 3.77083 26.5006 4.64583C28.5284 5.52083 30.2923 6.70833 31.7923 8.20833C33.2923 9.70833 34.4798 11.4722 35.3548 13.5C36.2298 15.5278 36.6673 17.6944 36.6673 20C36.6673 22.3055 36.2298 24.4722 35.3548 26.5C34.4798 28.5278 33.2923 30.2917 31.7923 31.7917C30.2923 33.2917 28.5284 34.4792 26.5006 35.3542C24.4729 36.2292 22.3062 36.6667 20.0007 36.6667ZM20.0007 33.3333C23.7229 33.3333 26.8756 32.0417 29.459 29.4583C32.0423 26.875 33.334 23.7222 33.334 20C33.334 16.2778 32.0423 13.125 29.459 10.5417C26.8756 7.95833 23.7229 6.66666 20.0007 6.66666C16.2784 6.66666 13.1257 7.95833 10.5423 10.5417C7.95898 13.125 6.66732 16.2778 6.66732 20C6.66732 23.7222 7.95898 26.875 10.5423 29.4583C13.1257 32.0417 16.2784 33.3333 20.0007 33.3333Z" fill="#232323"/>
</svg>
