<svg width="40" height="40" viewBox="0 0 40 40" fill="none" xmlns="http://www.w3.org/2000/svg">
<path d="M27.8559 19.5315L22.7387 14.4144L24.7928 12.3964L27.8559 15.4595L33.982 9.33333L36 11.3874L27.8559 19.5315ZM15.5315 19.5315C13.9459 19.5315 12.5886 18.967 11.4595 17.8378C10.3303 16.7087 9.76577 15.3514 9.76577 13.7658C9.76577 12.1802 10.3303 10.8228 11.4595 9.69369C12.5886 8.56456 13.9459 8 15.5315 8C17.1171 8 18.4745 8.56456 19.6036 9.69369C20.7327 10.8228 21.2973 12.1802 21.2973 13.7658C21.2973 15.3514 20.7327 16.7087 19.6036 17.8378C18.4745 18.967 17.1171 19.5315 15.5315 19.5315ZM4 31.0631V27.027C4 26.2102 4.21021 25.4595 4.63063 24.7748C5.05105 24.0901 5.60961 23.5676 6.30631 23.2072C7.7958 22.4625 9.30931 21.9039 10.8468 21.5315C12.3844 21.1592 13.9459 20.973 15.5315 20.973C17.1171 20.973 18.6787 21.1592 20.2162 21.5315C21.7538 21.9039 23.2673 22.4625 24.7568 23.2072C25.4535 23.5676 26.012 24.0901 26.4324 24.7748C26.8529 25.4595 27.0631 26.2102 27.0631 27.027V31.0631H4ZM6.88288 28.1802H24.1802V27.027C24.1802 26.7628 24.1141 26.5225 23.982 26.3063C23.8499 26.0901 23.6757 25.9219 23.4595 25.8018C22.1622 25.1532 20.8529 24.6667 19.5315 24.3423C18.2102 24.018 16.8769 23.8559 15.5315 23.8559C14.1862 23.8559 12.8529 24.018 11.5315 24.3423C10.2102 24.6667 8.9009 25.1532 7.6036 25.8018C7.38739 25.9219 7.21321 26.0901 7.08108 26.3063C6.94895 26.5225 6.88288 26.7628 6.88288 27.027V28.1802ZM15.5315 16.6486C16.3243 16.6486 17.003 16.3664 17.5676 15.8018C18.1321 15.2372 18.4144 14.5586 18.4144 13.7658C18.4144 12.973 18.1321 12.2943 17.5676 11.7297C17.003 11.1652 16.3243 10.8829 15.5315 10.8829C14.7387 10.8829 14.0601 11.1652 13.4955 11.7297C12.9309 12.2943 12.6486 12.973 12.6486 13.7658C12.6486 14.5586 12.9309 15.2372 13.4955 15.8018C14.0601 16.3664 14.7387 16.6486 15.5315 16.6486Z" fill="#94B0F3"/>
</svg>
