<svg width="40" height="40" viewBox="0 0 40 40" fill="none" xmlns="http://www.w3.org/2000/svg">
<path d="M19.1111 13.5556H27.4444V16.3333H19.1111V13.5556ZM19.1111 19.1111H27.4444V21.8889H19.1111V19.1111ZM19.1111 24.6667H27.4444V27.4444H19.1111V24.6667ZM13.5556 13.5556H16.3333V16.3333H13.5556V13.5556ZM13.5556 19.1111H16.3333V21.8889H13.5556V19.1111ZM13.5556 24.6667H16.3333V27.4444H13.5556V24.6667ZM31.75 8H9.25C8.55556 8 8 8.55556 8 9.25V31.75C8 32.3056 8.55556 33 9.25 33H31.75C32.3056 33 33 32.3056 33 31.75V9.25C33 8.55556 32.3056 8 31.75 8ZM30.2222 30.2222H10.7778V10.7778H30.2222V30.2222Z" fill="black"/>
</svg>
