<svg width="40" height="40" viewBox="0 0 40 40" fill="none" xmlns="http://www.w3.org/2000/svg">
<path d="M24.8807 12.8394H22.3211V10.2798H24.8807V12.8394ZM27.4404 14.1193H24.8807V16.6789H27.4404V14.1193ZM28.7202 16.6789H31.2798V14.1193H28.7202V16.6789ZM28.7202 10.2798H26.1606V12.8394H28.7202V10.2798ZM23.6009 14.1193H21.0413V16.6789H23.6009V14.1193ZM28.7202 17.9587H26.1606V20.5183H28.7202V17.9587ZM24.8807 17.9587H22.3211V20.5183H24.8807V17.9587ZM21.0413 10.2798H18.4817V12.8394H21.0413V10.2798ZM30 25.4072V30.7184C30 31.4351 29.3985 32.0367 28.6818 31.9983C24.9831 31.7807 21.5148 30.68 18.4817 28.9267C14.9878 26.9046 12.0954 24.0122 10.0733 20.5183C8.30715 17.4852 7.21931 14.0169 7.00174 10.3182C6.96335 9.60151 7.56486 9 8.28156 9H13.5928C14.2071 9 14.7318 9.43514 14.847 10.0239L15.7941 14.7336C15.8837 15.1559 15.7429 15.591 15.4485 15.8854L12.2106 19.1105C14.0407 22.3101 16.6899 24.9593 19.8895 26.7894L23.1146 23.5643C23.4218 23.2571 23.8569 23.1291 24.2664 23.2187L28.9634 24.153C29.5649 24.2682 30 24.7929 30 25.4072ZM11.0332 16.6661L13.1448 14.5544L12.5433 11.5596H9.68935C9.90692 13.313 10.3677 15.0279 11.0332 16.6661ZM27.4404 26.4567L24.4456 25.8552L22.3339 27.9668C23.9721 28.6323 25.6998 29.0803 27.4404 29.3106V26.4567ZM30 10.2798V12.8394H32.5596V10.2798H30ZM30 20.5183H32.5596V17.9587H30V20.5183ZM21.0413 17.9587H18.4817V20.5183H21.0413V17.9587Z" fill="black"/>
</svg>
