<svg width="40" height="40" viewBox="0 0 40 40" fill="none" xmlns="http://www.w3.org/2000/svg">
<path d="M13.2083 33.625V30.7083H19.0417V26.1875C17.8507 25.9201 16.7873 25.4158 15.8516 24.6745C14.9158 23.9332 14.2292 23.0035 13.7917 21.8854C11.9687 21.6667 10.4436 20.8707 9.21615 19.4974C7.98872 18.1241 7.375 16.5139 7.375 14.6667V10.2917H13.2083V7.375H27.7917V10.2917H33.625V14.6667C33.625 16.5139 33.0113 18.1241 31.7839 19.4974C30.5564 20.8707 29.0312 21.6667 27.2083 21.8854C26.7708 23.0035 26.0842 23.9332 25.1484 24.6745C24.2127 25.4158 23.1493 25.9201 21.9583 26.1875V30.7083H27.7917V33.625H13.2083ZM13.2083 18.75V13.2083H10.2917V14.6667C10.2917 15.5903 10.559 16.4227 11.0937 17.1641C11.6285 17.9054 12.3333 18.434 13.2083 18.75ZM20.5 23.4167C21.7153 23.4167 22.7483 22.9913 23.599 22.1406C24.4497 21.2899 24.875 20.2569 24.875 19.0417V10.2917H16.125V19.0417C16.125 20.2569 16.5503 21.2899 17.401 22.1406C18.2517 22.9913 19.2847 23.4167 20.5 23.4167ZM27.7917 18.75C28.6667 18.434 29.3715 17.9054 29.9062 17.1641C30.441 16.4227 30.7083 15.5903 30.7083 14.6667V13.2083H27.7917V18.75Z" fill="#FFB562"/>
</svg>
