<svg width="40" height="40" viewBox="0 0 40 40" fill="none" xmlns="http://www.w3.org/2000/svg">
<path d="M11.375 19.25H28.625V17H11.375V19.25ZM11.375 25.25H22.625V23H11.375V25.25ZM7.25 32C6.65 32 6.125 31.7688 5.675 31.3063C5.225 30.8438 5 30.325 5 29.75V10.25C5 9.675 5.225 9.15625 5.675 8.69375C6.125 8.23125 6.65 8 7.25 8H17.7875L20.0375 10.25H32.75C33.325 10.25 33.8438 10.4813 34.3063 10.9438C34.7688 11.4063 35 11.925 35 12.5V29.75C35 30.325 34.7688 30.8438 34.3063 31.3063C33.8438 31.7688 33.325 32 32.75 32H7.25ZM7.25 29.75H32.75V12.5H19.1L16.85 10.25H7.25V29.75Z" fill="#835CD5"/>
</svg>
