<svg width="40" height="40" viewBox="0 0 40 40" fill="none" xmlns="http://www.w3.org/2000/svg">
<path d="M19.5936 33.59V29.3526C13.6965 29.0465 9 24.1499 9 18.1822C9 12.0143 14.0143 7 20.1822 7C26.35 7 31.3643 12.0143 31.3643 18.1822C31.3643 24.0087 27.3152 29.8705 21.2768 32.7778L19.5936 33.59ZM20.1822 9.35414C15.3091 9.35414 11.3541 13.3091 11.3541 18.1822C11.3541 23.0552 15.3091 27.0102 20.1822 27.0102H21.9478V29.7174C26.2323 27.0102 29.0102 22.5609 29.0102 18.1822C29.0102 13.3091 25.0552 9.35414 20.1822 9.35414ZM19.0051 22.8904H21.3592V25.2446H19.0051V22.8904ZM21.3592 21.1248H19.0051C19.0051 17.2994 22.5363 17.5936 22.5363 15.2395C22.5363 13.9447 21.4769 12.8853 20.1822 12.8853C18.8874 12.8853 17.828 13.9447 17.828 15.2395H15.4739C15.4739 12.6382 17.5808 10.5312 20.1822 10.5312C22.7835 10.5312 24.8904 12.6382 24.8904 15.2395C24.8904 18.1822 21.3592 18.4764 21.3592 21.1248Z" fill="black"/>
</svg>
