<svg width="40" height="40" viewBox="0 0 40 40" fill="none" xmlns="http://www.w3.org/2000/svg">
<path d="M32.1737 18.6394V31.79H8.3837V18.6394C7.87707 18.1768 7.48607 17.5821 7.21072 16.8552C6.93538 16.1283 6.92987 15.3353 7.1942 14.4762L9.20975 8H31.3477L33.3632 14.4762C33.6275 15.3353 33.622 16.1172 33.3467 16.8221C33.0713 17.527 32.6803 18.1328 32.1737 18.6394ZM23.1864 17.2517C23.7811 17.2517 24.2327 17.0479 24.5411 16.6404C24.8495 16.2329 24.9706 15.7758 24.9045 15.2692L24.1776 10.6433H21.6004V15.5335C21.6004 15.9961 21.7546 16.3981 22.063 16.7395C22.3713 17.081 22.7458 17.2517 23.1864 17.2517ZM17.2389 17.2517C17.7455 17.2517 18.1585 17.081 18.4779 16.7395C18.7973 16.3981 18.957 15.9961 18.957 15.5335V10.6433H16.3798L15.6529 15.2692C15.5648 15.7978 15.6804 16.2604 15.9998 16.6569C16.3192 17.0534 16.7322 17.2517 17.2389 17.2517ZM11.3575 17.2517C11.754 17.2517 12.1009 17.1085 12.3983 16.8221C12.6956 16.5358 12.8774 16.1723 12.9435 15.7318L13.6704 10.6433H11.0931L9.77145 15.0709C9.63929 15.5115 9.71088 15.9851 9.98622 16.4917C10.2616 16.9983 10.7186 17.2517 11.3575 17.2517ZM29.2 17.2517C29.8388 17.2517 30.3013 16.9983 30.5877 16.4917C30.8741 15.9851 30.9401 15.5115 30.786 15.0709L29.3982 10.6433H26.887L27.614 15.7318C27.68 16.1723 27.8618 16.5358 28.1591 16.8221C28.4565 17.1085 28.8035 17.2517 29.2 17.2517ZM11.027 29.1467H29.5304V19.8289C29.4202 19.873 29.3486 19.895 29.3156 19.895H29.2C28.6052 19.895 28.082 19.7959 27.6305 19.5976C27.1789 19.3994 26.7328 19.08 26.2923 18.6394C25.8958 19.0359 25.4442 19.3443 24.9376 19.5646C24.4309 19.7849 23.8913 19.895 23.3185 19.895C22.7238 19.895 22.1676 19.7849 21.6499 19.5646C21.1323 19.3443 20.6752 19.0359 20.2787 18.6394C19.9042 19.0359 19.4692 19.3443 18.9736 19.5646C18.4779 19.7849 17.9438 19.895 17.371 19.895C16.7322 19.895 16.154 19.7849 15.6363 19.5646C15.1187 19.3443 14.6616 19.0359 14.2651 18.6394C13.8025 19.102 13.3455 19.4269 12.8939 19.6141C12.4423 19.8014 11.9302 19.895 11.3575 19.895H11.2088C11.1537 19.895 11.0931 19.873 11.027 19.8289V29.1467Z" fill="black"/>
</svg>
