<svg width="40" height="40" viewBox="0 0 40 40" fill="none" xmlns="http://www.w3.org/2000/svg">
<path d="M28.1942 25.1238L24.8074 21.8192L26.2442 20.4173L28.1942 22.2865L33.0178 17.58L34.4545 18.9819L28.1942 25.1238ZM18.6839 32L15.2971 28.9624C13.313 27.1822 11.6652 25.6579 10.3538 24.3894C9.04245 23.121 7.98765 21.975 7.18942 20.9513C6.39119 19.9277 5.82674 18.9653 5.49604 18.064C5.16535 17.1627 5 16.2003 5 15.1767C5 13.1739 5.6899 11.4771 7.06969 10.0862C8.44948 8.69541 10.1543 8 12.184 8C13.484 8 14.687 8.29485 15.7931 8.88456C16.8993 9.47427 17.8628 10.3366 18.6839 11.4715C19.6418 10.2698 20.6566 9.39082 21.7286 8.83449C22.8005 8.27816 23.9522 8 25.1837 8C27.031 8 28.5762 8.61196 29.8192 9.83588C31.0621 11.0598 31.8204 12.5396 32.0941 14.2754H30.0757C29.8704 13.0515 29.3402 12.0334 28.4849 11.2211C27.6297 10.4089 26.5293 10.0028 25.1837 10.0028C24.0206 10.0028 22.9373 10.3477 21.9338 11.0375C20.9303 11.7274 20.1207 12.7065 19.5049 13.975H17.8287C17.2357 12.7288 16.4374 11.7552 15.4339 11.0542C14.4305 10.3533 13.3472 10.0028 12.184 10.0028C10.6788 10.0028 9.44727 10.4979 8.48939 11.4882C7.53152 12.4784 7.05259 13.7079 7.05259 15.1767C7.05259 16.0445 7.22933 16.8901 7.58283 17.7135C7.93633 18.5369 8.55211 19.4715 9.43016 20.5174C10.3082 21.5633 11.4998 22.7872 13.0051 24.1892C14.5103 25.5911 16.4033 27.3157 18.6839 29.363C19.4137 28.7176 20.1036 28.1168 20.7536 27.5605C21.4035 27.0042 22.0478 26.459 22.6864 25.9249L22.9088 26.1419C23.057 26.2865 23.2224 26.4423 23.4048 26.6092C23.5873 26.7761 23.7526 26.9319 23.9008 27.0765L24.1232 27.2935C23.5075 27.8276 22.8689 28.3727 22.2075 28.929C21.5461 29.4854 20.8391 30.0973 20.0865 30.765L18.6839 32Z" fill="#F164AB"/>
</svg>
