<svg width="40" height="40" viewBox="0 0 40 40" fill="none" xmlns="http://www.w3.org/2000/svg">
<path d="M9.038 18.152C7.91031 18.152 7 19.0623 7 20.19C7 21.3177 7.91031 22.228 9.038 22.228C10.1657 22.228 11.076 21.3177 11.076 20.19C11.076 19.0623 10.1657 18.152 9.038 18.152ZM9.038 10C7.91031 10 7 10.9103 7 12.038C7 13.1657 7.91031 14.076 9.038 14.076C10.1657 14.076 11.076 13.1657 11.076 12.038C11.076 10.9103 10.1657 10 9.038 10ZM9.038 26.304C7.91031 26.304 7 27.2279 7 28.342C7 29.4561 7.92389 30.38 9.038 30.38C10.1521 30.38 11.076 29.4561 11.076 28.342C11.076 27.2279 10.1657 26.304 9.038 26.304ZM13.114 29.7007H32.1353V26.9833H13.114V29.7007ZM13.114 21.5487H32.1353V18.8313H13.114V21.5487ZM13.114 10.6793V13.3967H32.1353V10.6793H13.114Z" fill="black"/>
</svg>
