<svg width="40" height="40" viewBox="0 0 40 40" fill="none" xmlns="http://www.w3.org/2000/svg">
<path d="M20 28C21.25 28 22.3125 27.5625 23.1875 26.6875C24.0625 25.8125 24.5 24.75 24.5 23.5C24.5 22.25 24.0625 21.1875 23.1875 20.3125C22.3125 19.4375 21.25 19 20 19C18.75 19 17.6875 19.4375 16.8125 20.3125C15.9375 21.1875 15.5 22.25 15.5 23.5C15.5 24.75 15.9375 25.8125 16.8125 26.6875C17.6875 27.5625 18.75 28 20 28ZM17.075 17.7C17.4083 17.5167 17.7625 17.3708 18.1375 17.2625C18.5125 17.1542 18.8917 17.0833 19.275 17.05L16.75 12H14.25L17.075 17.7ZM22.925 17.7L25.775 12H23.25L21.125 16.25L21.6 17.2C21.8333 17.2667 22.0583 17.3375 22.275 17.4125C22.4917 17.4875 22.7083 17.5833 22.925 17.7ZM14.4 26.8C14.1167 26.3167 13.8958 25.7958 13.7375 25.2375C13.5792 24.6792 13.5 24.1 13.5 23.5C13.5 22.9 13.5792 22.3208 13.7375 21.7625C13.8958 21.2042 14.1167 20.6833 14.4 20.2C13.7 20.4333 13.125 20.8458 12.675 21.4375C12.225 22.0292 12 22.7167 12 23.5C12 24.2833 12.225 24.9708 12.675 25.5625C13.125 26.1542 13.7 26.5667 14.4 26.8ZM25.6 26.8C26.3 26.5667 26.875 26.1542 27.325 25.5625C27.775 24.9708 28 24.2833 28 23.5C28 22.7167 27.775 22.0292 27.325 21.4375C26.875 20.8458 26.3 20.4333 25.6 20.2C25.8833 20.6833 26.1042 21.2042 26.2625 21.7625C26.4208 22.3208 26.5 22.9 26.5 23.5C26.5 24.1 26.4208 24.6792 26.2625 25.2375C26.1042 25.7958 25.8833 26.3167 25.6 26.8ZM20 30C19.3333 30 18.6958 29.9042 18.0875 29.7125C17.4792 29.5208 16.9167 29.2583 16.4 28.925C16.25 28.9583 16.1 28.9792 15.95 28.9875C15.8 28.9958 15.6417 29 15.475 29C13.9583 29 12.6667 28.4667 11.6 27.4C10.5333 26.3333 10 25.0417 10 23.525C10 22.075 10.4833 20.8333 11.45 19.8C12.4167 18.7667 13.6083 18.1917 15.025 18.075L11 10H18L20 14L22 10H29L25 18.025C26.4167 18.1583 27.6042 18.7417 28.5625 19.775C29.5208 20.8083 30 22.05 30 23.5C30 25.0333 29.4667 26.3333 28.4 27.4C27.3333 28.4667 26.0333 29 24.5 29C24.35 29 24.1958 28.9958 24.0375 28.9875C23.8792 28.9792 23.725 28.9583 23.575 28.925C23.0583 29.2583 22.5 29.5208 21.9 29.7125C21.3 29.9042 20.6667 30 20 30ZM18.15 26.25L18.85 23.975L17 22.65H19.275L20 20.25L20.725 22.65H23L21.15 23.975L21.85 26.25L20 24.85L18.15 26.25Z" fill="black"/>
</svg>
