<svg width="40" height="40" viewBox="0 0 40 40" fill="none" xmlns="http://www.w3.org/2000/svg">
<path d="M11.4444 31C10.7722 31 10.1968 30.7606 9.71806 30.2819C9.23935 29.8032 9 29.2278 9 28.5556V11.4444C9 10.7722 9.23935 10.1968 9.71806 9.71806C10.1968 9.23935 10.7722 9 11.4444 9H28.5556C29.2278 9 29.8032 9.23935 30.2819 9.71806C30.7606 10.1968 31 10.7722 31 11.4444V28.5556C31 29.2278 30.7606 29.8032 30.2819 30.2819C29.8032 30.7606 29.2278 31 28.5556 31H11.4444ZM11.4444 28.5556H28.5556V11.4444H11.4444V28.5556Z" fill="black"/>
<path d="M21.3878 18.7731C22.8735 19.2269 24 20.4034 24 22.1345C24 24.6555 22.0735 26 19.9184 26C18.2041 26 16.6531 25.1933 16 23.5126L17.9265 22.3697C18.2041 23.2437 18.8408 23.7311 19.9184 23.7311C21.0939 23.7311 21.7469 23.0924 21.7469 22.1345C21.7469 21.1933 21.0939 20.5378 19.9184 20.5378H19.4286L18.5633 19.1933L20.8163 16.1681H16.3429V14H23.5265V15.916L21.3878 18.7731Z" fill="black"/>
</svg>
