<svg width="40" height="40" viewBox="0 0 40 40" fill="none" xmlns="http://www.w3.org/2000/svg">
<path d="M4 28V25.9C4 24.9444 4.48889 24.1667 5.46667 23.5667C6.44444 22.9667 7.73333 22.6667 9.33333 22.6667C9.62222 22.6667 9.9 22.6722 10.1667 22.6833C10.4333 22.6944 10.6889 22.7222 10.9333 22.7667C10.6222 23.2333 10.3889 23.7222 10.2333 24.2333C10.0778 24.7444 10 25.2778 10 25.8333V28H4ZM12 28V25.8333C12 25.1222 12.1944 24.4722 12.5833 23.8833C12.9722 23.2944 13.5222 22.7778 14.2333 22.3333C14.9444 21.8889 15.7944 21.5556 16.7833 21.3333C17.7722 21.1111 18.8444 21 20 21C21.1778 21 22.2611 21.1111 23.25 21.3333C24.2389 21.5556 25.0889 21.8889 25.8 22.3333C26.5111 22.7778 27.0556 23.2944 27.4333 23.8833C27.8111 24.4722 28 25.1222 28 25.8333V28H12ZM30 28V25.8333C30 25.2556 29.9278 24.7111 29.7833 24.2C29.6389 23.6889 29.4222 23.2111 29.1333 22.7667C29.3778 22.7222 29.6278 22.6944 29.8833 22.6833C30.1389 22.6722 30.4 22.6667 30.6667 22.6667C32.2667 22.6667 33.5556 22.9611 34.5333 23.55C35.5111 24.1389 36 24.9222 36 25.9V28H30ZM14.8333 25.3333H25.2C24.9778 24.8889 24.3611 24.5 23.35 24.1667C22.3389 23.8333 21.2222 23.6667 20 23.6667C18.7778 23.6667 17.6611 23.8333 16.65 24.1667C15.6389 24.5 15.0333 24.8889 14.8333 25.3333ZM9.33333 21.3333C8.6 21.3333 7.97222 21.0722 7.45 20.55C6.92778 20.0278 6.66667 19.4 6.66667 18.6667C6.66667 17.9111 6.92778 17.2778 7.45 16.7667C7.97222 16.2556 8.6 16 9.33333 16C10.0889 16 10.7222 16.2556 11.2333 16.7667C11.7444 17.2778 12 17.9111 12 18.6667C12 19.4 11.7444 20.0278 11.2333 20.55C10.7222 21.0722 10.0889 21.3333 9.33333 21.3333ZM30.6667 21.3333C29.9333 21.3333 29.3056 21.0722 28.7833 20.55C28.2611 20.0278 28 19.4 28 18.6667C28 17.9111 28.2611 17.2778 28.7833 16.7667C29.3056 16.2556 29.9333 16 30.6667 16C31.4222 16 32.0556 16.2556 32.5667 16.7667C33.0778 17.2778 33.3333 17.9111 33.3333 18.6667C33.3333 19.4 33.0778 20.0278 32.5667 20.55C32.0556 21.0722 31.4222 21.3333 30.6667 21.3333ZM20 20C18.8889 20 17.9444 19.6111 17.1667 18.8333C16.3889 18.0556 16 17.1111 16 16C16 14.8667 16.3889 13.9167 17.1667 13.15C17.9444 12.3833 18.8889 12 20 12C21.1333 12 22.0833 12.3833 22.85 13.15C23.6167 13.9167 24 14.8667 24 16C24 17.1111 23.6167 18.0556 22.85 18.8333C22.0833 19.6111 21.1333 20 20 20ZM20 17.3333C20.3778 17.3333 20.6944 17.2056 20.95 16.95C21.2056 16.6944 21.3333 16.3778 21.3333 16C21.3333 15.6222 21.2056 15.3056 20.95 15.05C20.6944 14.7944 20.3778 14.6667 20 14.6667C19.6222 14.6667 19.3056 14.7944 19.05 15.05C18.7944 15.3056 18.6667 15.6222 18.6667 16C18.6667 16.3778 18.7944 16.6944 19.05 16.95C19.3056 17.2056 19.6222 17.3333 20 17.3333Z" fill="black"/>
</svg>
